<svg width="60" height="60" viewBox="0 0 60 60" fill="none" xmlns="http://www.w3.org/2000/svg">
<path fill-rule="evenodd" clip-rule="evenodd" d="M30.7062 13.3965C32.5264 13.3965 34.0019 11.9611 34.0019 10.1905C34.0019 8.41981 32.5264 6.98441 30.7062 6.98441C28.8861 6.98441 27.4105 8.41981 27.4105 10.1905C27.4105 11.9611 28.8861 13.3965 30.7062 13.3965ZM37.0697 10.1905C37.0697 13.0987 35.0082 15.5385 32.2293 16.2025C32.2365 16.261 32.2402 16.3206 32.2402 16.381V21.2035C34.6412 21.5968 36.7255 22.8979 38.1071 24.7314L43.7789 21.7334C43.5288 20.7497 43.524 19.6924 43.8137 18.6445C44.7266 15.343 48.2179 13.3865 51.6117 14.2745C55.0056 15.1626 57.0168 18.5589 56.1039 21.8605C55.191 25.162 51.6997 27.1186 48.3059 26.2305C47.0631 25.9053 46.0058 25.2438 45.2095 24.3738L39.4814 27.4015C39.7383 28.2237 39.8765 29.0962 39.8765 30.0001C39.8765 30.9637 39.7194 31.8917 39.4288 32.7611L45.0711 36.1462C45.8767 35.1939 46.9819 34.4658 48.2974 34.1146C51.6865 33.2097 55.188 35.1489 56.1182 38.4459C57.0483 41.7429 55.0549 45.1492 51.6657 46.054C48.2766 46.9589 44.7751 45.0197 43.845 41.7227C43.5718 40.7545 43.5508 39.7768 43.7432 38.8558L37.9988 35.4095C36.6178 37.1687 34.5793 38.4134 32.2402 38.7966V43.619C32.2402 43.6794 32.2365 43.739 32.2293 43.7975C35.0083 44.4615 37.0697 46.9013 37.0697 49.8095C37.0697 53.2284 34.2207 56 30.7062 56C27.1917 56 24.3427 53.2284 24.3427 49.8095C24.3427 46.9013 26.4042 44.4615 29.1832 43.7975C29.176 43.739 29.1723 43.6794 29.1723 43.619V38.7966C24.8381 38.0864 21.5363 34.4184 21.5363 30.0001C21.5363 25.5818 24.8381 21.9137 29.1723 21.2036V16.381C29.1723 16.3206 29.176 16.261 29.1832 16.2025C26.4042 15.5385 24.3427 13.0987 24.3427 10.1905C24.3427 6.77157 27.1917 4 30.7062 4C34.2207 4 37.0697 6.77157 37.0697 10.1905ZM36.8087 30.0001C36.8087 33.2744 34.0837 35.9295 30.7195 35.9364L30.7062 35.9364L30.693 35.9364C27.329 35.9294 24.6041 33.2743 24.6041 30.0001C24.6041 26.7215 27.3362 24.0637 30.7064 24.0637C34.0766 24.0637 36.8087 26.7215 36.8087 30.0001ZM34.0019 49.8095C34.0019 51.5802 32.5264 53.0156 30.7062 53.0156C28.8861 53.0156 27.4105 51.5802 27.4105 49.8095C27.4105 48.0389 28.8861 46.6035 30.7062 46.6035C32.5264 46.6035 34.0019 48.0389 34.0019 49.8095ZM53.1414 21.0853C53.6141 19.3754 52.5725 17.6164 50.8149 17.1565C49.0572 16.6966 47.249 17.7099 46.7762 19.4197C46.3035 21.1296 47.3451 22.8886 49.1027 23.3485C50.8604 23.8085 52.6686 22.7952 53.1414 21.0853ZM53.1597 39.2358C53.6414 40.9433 52.6091 42.7074 50.8538 43.1761C49.0986 43.6447 47.2851 42.6404 46.8034 40.9328C46.3217 39.2253 47.3541 37.4612 49.1093 36.9926C50.8646 36.5239 52.678 37.5283 53.1597 39.2358ZM18.8466 17.4305C12.4568 17.4305 7.08662 22.8917 7.08663 29.8655C7.08663 36.8392 12.4568 42.3005 18.8466 42.3005V45.2849C10.5524 45.2849 4.0188 38.2754 4.0188 29.8655C4.0188 21.4556 10.5524 14.4461 18.8466 14.4461V17.4305Z" fill="url(#paint0_linear_743_2656)"/>
<defs>
<linearGradient id="paint0_linear_743_2656" x1="2.117" y1="28.8257" x2="38.4448" y2="50.3666" gradientUnits="userSpaceOnUse">
<stop stop-color="#00EDD1"/>
<stop offset="0.846354" stop-color="#45C7FF"/>
</linearGradient>
</defs>
</svg>
